<?xml version="1.0" encoding="UTF-8"?>
<svg width="88px" height="88px" viewBox="0 0 88 88" version="1.1" xmlns="http://www.w3.org/2000/svg" xmlns:xlink="http://www.w3.org/1999/xlink">
    <!-- Generator: Sketch 63.1 (92452) - https://sketch.com -->
    <title>icon</title>
    <desc>Created with Sketch.</desc>
    <defs>
        <linearGradient x1="19.3819699%" y1="76.1432524%" x2="80.0003163%" y2="25.668436%" id="linearGradient-1">
            <stop stop-color="#2C6BB4" offset="0%"></stop>
            <stop stop-color="#792EE5" offset="100%"></stop>
        </linearGradient>
    </defs>
    <g id="icon" stroke="none" stroke-width="1" fill="none" fill-rule="evenodd">
        <path d="M76.7676652,58 L81.4375006,58.7911938 C75.4004732,73.3306479 61.1364155,83.592898 44.4542048,83.7690669 C44.3088791,83.7706015 44.1633699,83.7713708 44.0176811,83.7713708 C43.4093952,83.7713708 58.6327312,83.7713708 68.615544,73.6696934 C72.4199964,69.8199417 75.1373701,64.5967106 76.7676652,58 L76.7676652,58 Z M44,2.84217094e-14 C68.300529,2.84217094e-14 88,19.699471 88,44 C88,68.300529 68.300529,88 44,88 C19.699471,88 -6.39488462e-14,68.300529 -6.39488462e-14,44 C-6.39488462e-14,19.699471 19.699471,2.84217094e-14 44,2.84217094e-14 Z M43.7392086,45 L28.0596905,63.5205529 L33.2928943,63.5205529 L29.5602702,82 L45.2209808,63.5205529 L39.9843368,63.5 L43.7392086,45 Z M63.6138466,43 L63.6138466,47.8790772 L45.2471772,44.3990367 L63.6138466,59 L63.634274,54.1177153 L82.0213708,57.6184981 L63.6138466,43 Z M24.3880401,29 L24.3880401,33.8790772 L6.02137077,30.3990367 L24.3880401,45 L24.4084675,40.1177153 L42.7955643,43.6184981 L24.3880401,29 Z M58.5012788,6 L42.8217607,24.5205529 L48.0549645,24.5205529 L44.3223405,43 L59.9830511,24.5205529 L54.746407,24.5 L58.5012788,6 Z" id="RIDE" fill="url(#linearGradient-1)" fill-rule="nonzero" transform="translate(44.000000, 44.000000) rotate(-50.000000) translate(-44.000000, -44.000000) "></path>
    </g>
</svg>