<?xml version="1.0" encoding="UTF-8"?>
<svg width="209px" height="87px" viewBox="0 0 209 87" version="1.1" xmlns="http://www.w3.org/2000/svg" xmlns:xlink="http://www.w3.org/1999/xlink">
    <!-- Generator: Sketch 63.1 (92452) - https://sketch.com -->
    <title>ride_logo</title>
    <desc>Created with Sketch.</desc>
    <defs>
        <linearGradient x1="49.9999927%" y1="80.4884356%" x2="50%" y2="10.8469199%" id="linearGradient-1">
            <stop stop-color="#2C6BB4" offset="0%"></stop>
            <stop stop-color="#792EE5" offset="100%"></stop>
        </linearGradient>
    </defs>
    <g id="ride_logo" stroke="none" stroke-width="1" fill="none" fill-rule="evenodd">
        <path d="M27.282911,56.9818268 L19.0572442,56.9818268 L23.1243957,36.0830479 L36.234802,36.0830479 L46.2543496,56.9818268 L60.133887,56.9818268 L48.8824277,34.6136025 C52.3865318,33.3074288 55.000922,31.1985026 56.7255982,28.2868238 C58.4502745,25.3751449 59.3126126,22.0144689 59.3126126,18.2047957 C59.3126126,14.5583941 58.6008414,11.3745958 57.1772991,8.65340063 C55.7537568,5.93220546 53.7553225,3.80967323 51.181996,2.28580394 C48.6086696,0.761934647 45.5425785,0 41.9837228,0 L14.7995401,0 L0,87 L27.282911,56.9818268 Z M24.9272465,25.6336585 L27.282911,10.7759329 L40.4233014,10.7759329 C41.6825888,10.7759329 42.7502455,10.9936285 43.6262716,11.4290197 C44.5022976,11.8644109 45.1866929,12.4902858 45.6794575,13.3066444 C46.1722222,14.1230029 46.4186045,15.1570571 46.4186045,16.4088069 L46.4186045,20.0007845 C46.4186045,21.1981104 46.1722222,22.2185585 45.6794575,23.062129 C45.1866929,23.9056995 44.5022976,24.5451804 43.6262716,24.9805716 C42.7502455,25.4159629 41.6825888,25.6336585 40.4233014,25.6336585 L24.9272465,25.6336585 Z M95.2023038,56.9818268 L95.2023038,47.1038883 L87.8108342,47.1038883 L87.8108342,9.87793846 L95.2023038,9.87793846 L95.2023038,0 L67.9359938,0 L67.9359938,9.87793846 L75.3274633,9.87793846 L75.3274633,47.1038883 L67.9359938,47.1038883 L67.9359938,56.9818268 L95.2023038,56.9818268 Z M127.232005,56.9818268 C132.323907,56.9818268 136.758788,55.9205607 140.536651,53.7980284 C144.314513,51.6754962 147.243725,48.5053039 149.324287,44.2874513 C151.404849,40.0695988 152.445129,34.8040862 152.445129,28.4909134 C152.445129,22.1777406 151.404849,16.912228 149.324287,12.6943755 C147.243725,8.47652294 144.314513,5.30633058 140.536651,3.18379835 C136.758788,1.06126612 132.323907,0 127.232005,0 L127.232005,0 L105.632489,0 L105.632489,56.9818268 L127.232005,56.9818268 Z M191.881406,1.13686838e-13 L193.137149,6.94622876 L193.873759,11.0208404 L172.191747,11.0208404 L173.238013,22.6947677 L195.90493,22.6947677 L197.8234,33.6339723 L174.207211,33.6339723 L175.357044,45.9609864 L200.023527,45.9609864 L207.186345,87 L191.319865,56.9818268 L162.875314,56.9818268 L156.903765,1.13686838e-13 L191.881406,1.13686838e-13 Z M127.232005,11.0208404 C129.695829,11.0208404 131.831142,11.4834436 133.637946,12.40865 C135.444749,13.3338563 136.827228,14.7488778 137.785381,16.6537144 C138.690304,18.4527268 139.167902,20.7614593 139.218176,23.579912 L139.222612,24.0825772 L139.222612,32.8992496 C139.222612,35.8925643 138.743535,38.3552459 137.785381,40.2872944 C136.827228,42.219343 135.444749,43.6479705 133.637946,44.5731768 C131.831142,45.4983832 129.695829,45.9609864 127.232005,45.9609864 L118.11586,45.9609864 L118.11586,11.0208404 L127.232005,11.0208404 Z" id="RIDE" fill="url(#linearGradient-1)" fill-rule="nonzero"></path>
    </g>
</svg>